<svg xmlns="http://www.w3.org/2000/svg" width="245" height="122" viewBox="0 0 245 122"><g><g clip-path="url(#clip-C75E952D-32BC-4872-87EE-08D40A5B2835)"><path d="M205.65 83.542c1.626-.517 3.382-.92 5.04-.631a.288.288 0 0 1 .072.547c-8.382 3.855-16.265 9.612-23.517 15.278-3.107 2.428-8.407 8.033-12.615 4.211-2.47-2.243.94-7.699-.033-8.74-.03-.032-.077-.024-.1.011-2.037 3.089-2.36 7.964-2.472 7.938-.697-.159-1.029-3.524-.27-5.651 4.539-12.735 6.075-15.404 10.002-24.391.768-1.759 2.133-7.364-.784-6.548-4.292 1.201-12.389 11.201-14.325 13.373-6.426 7.212-8.432 15.694-12.58 24.085-.344.695-.821 1.455-1.525 1.695a.237.237 0 0 1-.307-.265l2.126-12.428c.033-.195-.248-.27-.319-.085l-5.25 13.698c-.144.375-.475.665-.878.712-1.01.118-1.167-1.355-.919-2.306l3.733-14.307c.147-.561-.54-.963-.967-.564-1.6 1.499-3.743 3.749-4.995 5.563-3.673 5.323-14.715 16.493-24.271 9.4-4-2.967-4.514-11.88-4.685-12.144-1.554-2.394-3.613.71-4.789 3.407-3.887 8.913-11.757 13.744-17.309 10.145-4.959-3.215-1.643-11.271-.058-15.404 2.546-6.638 6.282-12.77 8.517-19.538.279-.842.141-1.78-.426-2.466-1.261-1.525-3.282-.483-4.641.597-8.709 6.922-15.333 16.372-18.83 26.86-1.07 3.212-1.939 6.664-4.232 9.149-.114.123-.321.075-.378-.082-.43-1.185.93-9.735 1.41-12.708.04-.25-.64-.993-1.2.793-1.314 4.199-2.365 8.474-3.441 12.738-.27 1.067-2.964 2.31-2.15-1.942.834-4.353 2.08-8.619 3.122-12.928.001-.008-.01-.014-.015-.007-11.34 15.196-27.675 20.958-26.486 11.52.994-7.902 4.153-14.919 7.28-23.539.088-.244-.25-.414-.396-.198-5.622 8.353-8.983 18.7-9.28 23.282-.113 1.755-.435 2.948-1.018 2.247-.79-.948-1.418-2.952-1.045-5.164 1.671-9.905 8.903-24.773 11.682-29.245 4.17-6.711 6.272-10.044 12.817-11.76 2.737-.718 2.442 1.345 1.88 2.363-9.97 18.035-12.964 23.69-17.197 36.915-3.5 10.936 5.672 6.863 14.452-3.483 8.495-10.01 16.322-27.378 22.815-34.668.998-1.122 5.956-2.595 5.78-1.73-.125.61-5.883 5.844-5.95 9.066-.002.063.074.099.125.06 1.304-1.034 2.625-2.29 3.776-3.508.139-.147.376.018.285.198-2.606 5.16-7.233 9.542-7.981 15.178-.029.216.237.345.392.19 3.61-3.597 15.054-20.256 20.79-17.976 2.713 1.078 3.367 3.8 4.324 6.349.104.278.503.26.592-.022.811-2.57-.167-5.63-2.348-7.25a.33.33 0 0 1 .105-.58c1.872-.58 4.118.88 4.806 2.794.762 2.12.164 4.462-.566 6.592-3.426 10-9.646 18.931-12.519 29.12-.23.815-.343 1.662-.279 2.506.306 3.993 9 6.637 11.764-14.288.108-.823.367-1.927.953-2.318.95-.634 1.545.529 2.183 1.092 2.875 2.543 4.424-.179 5.288-2.829 1.285-3.936 2.574-7.868 4.376-11.61 2.531-5.26 6.091-9.754 11.733-12.122 5.305-2.228 12.055-.943 14.844 4.455 1.284 2.484 1.75 4.43 1.097 7.144-1.73 7.18-5.006 12.88-10.307 17.349-.32.27-.956.781-1.134.606-.108-.107.361-.739.62-1.044 4.105-4.84 6.559-10.496 7.253-16.018.295-2.348-.533-1.53-1.026 0-3.4 10.542-11.403 22.899-21.802 23.047-1.416.02-2.69-.558-2.96.699-1.635 7.568 8.675 12.304 16.324 4.747 10.619-10.492 20.949-27.176 24.265-33.32 1.086-2.014 2.143-4.328 3.76-6.078.843-.912 2.406-2.258 5.901-2.317a.19.19 0 0 1 .146.319 39.203 39.203 0 0 0-5.879 8.31c-.055.104.062.218.167.162a14.848 14.848 0 0 0 3.089-2.217c.146-.136.364.045.253.21-2.661 3.96-5.658 9.323-7.035 13.032-.71 1.915-.249 1.174.657.331 3.253-3.024 8.41-10.885 13.191-14.418 2.294-1.696 5.941-5.32 10.597-2.786 2.438 1.327 1.443 4.58 2.023 6.529.101.342.582.383.75.067 1.077-2.025 1.05-4.603-.078-6.602-.11-.196.099-.42.305-.326 4.028 1.84 2.398 7.09.03 12.497-7.617 17.4-12.962 25.81-9.035 26.198 3.954.392 16.249-12.007 25.11-14.823m-82.175-3.219c-.296 2.06-.578 4.914.906 5.78 5.882 3.433 13.097-6.085 14.78-8.97 4.99-8.559 4.596-14.507 1.175-15.52-7.65-2.266-15.886 11.922-16.861 18.71m-27.73 21.013c-.251-2.864 1.648-10.855 1.085-11.142-.513-.262-2.813 5.351-3.334 8.193-.922 5.018 2.457 5.306 2.25 2.949m-54.783 11.742c7.914 3.548 16.221-1.134 18.174-1.391.1-.013.167.099.11.18-3.445 4.94-15.399 9.125-26.919 2.048-1.314-.808-5.695-3.84-7.788-5.36-.464-.339-1.059-.2-1.325.306-5.567 10.567-15.552 15.953-21.052 11.655-5.167-4.037.134-11.472 3.34-14.368 5.802-5.241 9.825-4.37 11.445-5.262 1.232-.68 1.397-1.848 2.54-4.26 2.112-4.45 3.679-8.442 9.401-21.99 12.93-30.61 24.454-62.295 33.512-64.713 1.324-.353 6.056.73 4.998 2.293-.153.225-.398.372-.663.445-8.348 2.323-16.022 17.93-14.942 17.148 1.254-.91 7.769-12.378 14.963-12.912 4.871-.361 1.692 7.978-.29 12.09-1.325 2.752-2.666 5.355-3.672 5.285-.86-.061 1.395-4.142 2.11-7.695.678-3.361-.241-5.718-4.31-1.609-7.167 7.24-20.948 47.58-34.026 77.42-.059.133-.577.927.075 1.335 5.068 3.177 9.3 7.106 14.319 9.355m-37.33 2.339c4.594 4.14 13.246-10.966 12.75-11.344-2.072-1.573-7.804 2.116-9.868 4.032-1.155 1.073-4.695 5.678-2.882 7.312m18.288-11.171c2.623-5.797 10.121-25.768 11.091-27.901.095-.21-.086-.333-.273-.196-3.376 2.488-7.89 17.931-16.18 32.521-4.271 7.518-8.817 9.113-10.362 9.62-.788.26.26 1.254 2.326.863 6.157-1.164 11.397-10.483 13.398-14.907M193.02 49.909a.33.33 0 0 1 .204.54c-.675.782-1.39 1.352-2.627 1.154a.345.345 0 0 1-.218-.549c.739-.967 1.563-1.306 2.64-1.145M68.658 51.576c1.786-2.154 2.97-5.34 6.85-4.393h.002c1.007.12 2.592-.555 2.977.46.507 1.337-1.23 1.837-2.055 2.635-1.895 1.835-3.985 3.22-6.867 2.65-.875-.172-1.586-.534-.907-1.352m147.396-31.968c-.188-.046-.384-.331-.336-.516.042-.162.082-.386.227-.471.175-.103.483-.023.593.147.153.238.078.68-.162.831-.066.041-.322.01-.322.01M64.637 44.206c1.4 2.226 2.315 4.542 1.129 7.199-.36.807-.873 1.414-1.534.582-1.74-2.19-4.63-4.024-2.853-7.561v-.002c.337-.946.014-2.621 1.101-2.773 1.43-.198 1.547 1.587 2.157 2.555m177.125 54.51c-1.405 2.395-3.382 4.323-5.226 6.377-2.384 2.656-4.767 5.313-7.228 7.9-1.512 1.588-3.272 2.773-5.42 3.243-3.136.688-5.631 2.192-7.266 4.99-.194.33-.49.868-.979.572-.136-.083.035-.819.198-1.2 1.534-3.588 2.89-7.25 4.966-10.602 2.007-3.24 3.62-6.63 4.214-10.488.418-2.71-.053-5.083-1.469-7.331-2.62-4.164-5.337-8.27-7.914-12.459-4.802-7.807-9.536-15.656-14.284-23.496-.222-.368-.55-.973-.403-1.204.404-.635 1.01-.102 1.49.055 4.637 1.513 8.377 4.341 11.495 7.966 5.276 6.132 9.204 12.945 10.341 21.067.2 1.43.167 2.89.302 4.331.08.854-.25 2.43.397 2.404 1.067-.042.928-1.513 1.17-2.448.536-2.07.7-4.171.657-6.298-.022-1.115-.004-2.23-.004-3.649.165-6.23-.726-12.579-3.285-18.658-1.144-2.716-2.435-5.294-5.159-6.809-.963-.536-1.022-1.395-1.024-2.297-.012-4.534-2.146-8.073-5.247-11.212a109.617 109.617 0 0 0-24.866-18.875c-5.026-2.79-10.389-4.85-16.19-5.601-3.446-.447-6.767.215-10.02 1.083-4.483 1.198-8.982 1.896-13.63 2.238-4.084.3-8.08-.386-12.118-.204-.415.018-1.106-.091-1.212-.335-.269-.623.392-.961.796-1.311.967-.838 2.188-1.144 3.4-1.398 8.49-1.777 16.985-3.537 25.481-5.285 1.112-.23 2.251-.243 3.363.025 8.318 2.007 15.999 5.339 22.73 10.662 3.357 2.655 7.197 4.595 10.74 6.975.277.186.59.363.91.432.296.065.738.1.919-.064.395-.359.166-.811-.098-1.185-.663-.94-1.634-1.516-2.58-2.127-3.874-2.499-7.654-5.116-11.252-8.006-2.446-1.965-4.663-4.146-6.788-6.41a26.063 26.063 0 0 0-8.41-5.988c-2.089-.928-4.108-2.008-6.154-3.029-.19-.094-.462-.281-.467-.432-.013-.429.41-.401.698-.458 2.153-.425 4.28-.004 6.37.37 6.97 1.245 12.922 4.56 18.136 9.181 4.045 3.584 7.603 7.612 10.514 12.169 3.861 6.045 8.448 11.547 12.963 17.112 3.47 4.276 6.353 8.935 8.456 14.034.17.412.253.877.494 1.242.63.95.543 2.917 2.008 2.59.91-.203.384-1.986.28-3.073-.553-5.76-1.277-11.523-1.09-17.31.173-5.38-1.518-10.068-4.495-14.432a714.055 714.055 0 0 1-5.045-7.518 15.049 15.049 0 0 1-.976-1.75c-.08-.165-.065-.48.045-.609.257-.302.606-.189.877.02.356.272.694.57 1.015.882 3.86 3.758 7.406 7.793 10.702 12.042 5.04 6.495 6.67 14.836 7.278 22.818.603 7.912.973 16.118-4.644 22.5-.9 1.023-1.186 2.199-.851 3.429 1.709 6.278.309 12.627.452 18.937.063 2.83-1.672 5.276-2.7 7.857-.163.41-.487.753-.685 1.152-.238.478-.71 1.09-.079 1.473.533.324 1.075-.21 1.435-.595 1.455-1.55 2.986-3.053 4.257-4.744 3.777-5.023 5.844-10.757 6.916-16.885.443-2.532.738-5.065.711-7.64-.009-.88.182-1.768.346-2.64.057-.302.246-.718.484-.816 1.34-.547 4.13 11.816 4.296 13.173.647 5.314-.313 10.917-3.044 15.57m-81.429-68.089c2.123-.68 4.295-.957 6.475-.956 2.531.002 5.073.377 7.56.933 4.53 1.012 8.982 3.038 13.705 2.877 3.136-.107 7.55 2.17 10.432 3.302 6.744 2.646 13.224 5.354 15.72 12.596 1.397 4.053-10.111-1.001-11.176-1.402-7.355-2.771-14.437-6.21-21.285-10.038-6.388-3.571-13.294-5.869-20.758-6.111a6.596 6.596 0 0 1-.51-.048c-.4-.05-.919.01-.889-.582.011-.206.44-.479.726-.57m2.64-11.863c-.188-.057-.412-.249-.458-.421-.034-.126.16-.407.317-.471a15.342 15.342 0 0 1 7.504-1.115c.167.016.318.18.477.275-.156.145-.286.355-.47.423-1.87.694-3.705 1.516-5.881 1.653h-.003c-.416-.092-.961-.186-1.486-.344m23.47 32.971c.195.08.298.307.216.497-.178.418-.489.526-.928.415a.364.364 0 0 1-.262-.455c.154-.519.466-.666.975-.457"/></g></g></svg>