<svg xmlns="http://www.w3.org/2000/svg" width="12" height="12" viewBox="0 0 12 12"><g><g><path fill="none" stroke="#323232" stroke-linecap="round" stroke-linejoin="round" stroke-miterlimit="20" stroke-width="1.5" d="M9.536 2.465a5 5 0 0 1 0 7.07 5 5 0 0 1-7.071 0 5 5 0 0 1 0-7.07 5 5 0 0 1 7.07 0"/></g><g><path fill="none" stroke="#323232" stroke-linecap="round" stroke-linejoin="round" stroke-miterlimit="20" stroke-width="1.5" d="M6 8.65a.05.05 0 0 0-.05.05c0 .027.023.05.05.05a.05.05 0 0 0 .05-.05.05.05 0 0 0-.05-.05"/></g><g><path fill="none" stroke="#323232" stroke-linecap="round" stroke-linejoin="round" stroke-miterlimit="20" stroke-width="1.5" d="M5.996 6.625a1.562 1.562 0 0 0 0-3.125c-.842 0-1.523.666-1.556 1.5"/></g></g></svg>