<svg xmlns="http://www.w3.org/2000/svg" width="16" height="19" viewBox="0 0 16 19"><g><g><path fill="none" stroke="#fa6400" stroke-linecap="round" stroke-linejoin="round" stroke-miterlimit="20" stroke-width="1.5" d="M9.6 18H6.4"/></g><g><path fill="none" stroke="#fa6400" stroke-linecap="round" stroke-linejoin="round" stroke-miterlimit="20" stroke-width="1.5" d="M13 8.032v0V8A5 5 0 0 0 3 8v2.504a.855.855 0 0 1-.472.764l-.503.252a1.854 1.854 0 0 0 .829 3.512h10.292a1.854 1.854 0 0 0 .829-3.512l-.503-.252a.855.855 0 0 1-.472-.764z"/></g><g><path fill="none" stroke="#fa6400" stroke-linecap="round" stroke-linejoin="round" stroke-miterlimit="20" stroke-width="1.5" d="M14.95 4.05a8.029 8.029 0 0 0-3-3"/></g><g><path fill="none" stroke="#fa6400" stroke-linecap="round" stroke-linejoin="round" stroke-miterlimit="20" stroke-width="1.5" d="M1.05 4.05a8.029 8.029 0 0 1 3-3"/></g></g></svg>