<svg xmlns="http://www.w3.org/2000/svg" width="33" height="40" viewBox="0 0 33 40"><g><g><path d="M19.442 1.33c.61.175.746.422.278.987-.98 1.185-2.207 1.71-3.71 1.682-1.366-.063-2.619-.47-3.703-1.34-.5-.403-.385-.792.319-1.088 1.08-.454 2.217-.528 3.354-.555l.683-.014c.931-.017 1.87.065 2.779.327zM13.1.261l-.497.07c-1.82.266-3.314 1.164-4.828 2.115l-.244.153C5.26 4.042 3.111 5.61 1.336 7.642c-.337.385-.446.743-.21 1.215.932 1.857 2.169 3.51 3.47 5.124.344.427.66.471 1.167.22l.065-.03c.816-.381 1.258-.16 1.474.73l.015.059c.122.417.378.472.744.527l.457.067c1.677.232 3.362.355 5.054.416 3.167.115 6.308-.097 9.415-.73l.041-.007c.386-.074.776-.089.798-.7.041-1.124.535-1.513 1.706-1.48.833.209 1.258-.323 1.632-.878l.173-.26c.536-.795.971-1.655 1.467-2.478.548-.91.902-1.888 1.157-2.912.101-.407.01-.633-.325-.906-.551-.447-1.212-.675-1.808-1.026-2.076-1.223-4.24-2.292-6.36-3.435C18.841-.257 15.967-.13 13.1.262zm10.492 16.777c-2.56.708-5.174.942-7.802.902-2.449-.037-4.922.08-7.321-.57l-.068-.017c-.687-.17-1.034-.007-1.36.658C5.952 20.23-.318 34.707.013 35.625c.651 1.81 2.193 2.633 3.942 2.064l.097-.03c1.391-.42 2.553-.081 3.575 1.007l.074.077c.598.601 1.324.906 2.158.92.397 0 .997-.304 1.752-.881l.08-.06c1.309-.974 2.18-.959 3.462.043l.624.485c1.436 1.115 2.377 1 3.567-.434l.057-.067c.955-1.117 1.771-1.165 2.996-.339.681.459 1.229 1.275 2.161 1.18 1.13-.116 2.075-.557 2.663-1.709l.041-.077c.649-1.196 1.737-1.525 2.946-.976.315.143.621.325.949.416.565.157 1.044-.02 1.465-.48.414-.452.473-.88.25-1.48-.658-1.783-1.142-2.627-1.9-4.357-1.283-2.926-2.72-5.776-4.1-8.652-.677-1.41-1.35-2.824-2.078-4.205l-.02-.04c-.243-.485-.405-1.206-1.182-.991z"/></g></g></svg>