<svg xmlns="http://www.w3.org/2000/svg" width="19" height="14" viewBox="0 0 19 14"><g><g><path fill="none" stroke="#323232" stroke-linecap="round" stroke-linejoin="round" stroke-miterlimit="20" stroke-width="1.5" d="M1.127 7.46a.892.892 0 0 1 0-.92C2.928 3.566 6.213 1 9.5 1c3.286 0 6.572 2.565 8.372 5.54.17.283.17.64 0 .922C16.072 10.436 12.786 13 9.5 13c-3.287 0-6.573-2.565-8.372-5.54z"/></g><g><path fill="none" stroke="#323232" stroke-linecap="round" stroke-linejoin="round" stroke-miterlimit="20" stroke-width="1.43" d="M11.507 5.04a2.725 2.725 0 0 1 0 3.917 2.88 2.88 0 0 1-4.008 0 2.726 2.726 0 0 1 0-3.916 2.881 2.881 0 0 1 4.008 0"/></g></g></svg>