<svg xmlns="http://www.w3.org/2000/svg" width="27" height="40" viewBox="0 0 27 40"><g><g><path d="M21.085 39.573c-1.723.13-3.443.311-5.168.378-3.943.152-7.871-.031-11.761-.799-.818-.162-1.51-.612-2.219-1.023-.51-.296-.378-.8-.287-1.264.497-2.546 1.013-5.087 1.498-7.635.88-4.633 1.745-9.27 2.617-13.904.097-.517.097-1.018-.318-1.39-.434-.39-.856-.121-1.231.127-.343.226-.583.13-.798-.157C2.172 12.24.947 10.562.087 8.622c-.21-.472-.007-.77.26-1.102 1.687-2.09 3.76-3.665 5.934-5.138C7.703 1.42 9.123.533 10.826.292c2.786-.396 5.607-.622 8.143.91 2.325 1.404 4.737 2.631 7.044 4.063.528.329.751.712.585 1.445-.467 2.07-1.69 3.71-2.668 5.486-.261.474-.683.757-1.335.678-1.198-.143-1.713.494-1.563 1.749.292 2.443 1.032 4.772 1.634 7.135.755 2.961 1.654 5.878 2.378 8.849.52 2.135 1.167 4.237 1.78 6.346.307 1.056.284 1.202-.664 1.585-1.631.66-3.343.92-5.075 1.035M12.827 1.1c-.973-.04-1.69.241-2.39.54-.4.172-.65.524-.186.972 1.764 1.703 5.006 2.055 6.372-.17.134-.22.434-.342.368-.672-.072-.356-.352-.4-.627-.472-1.24-.323-2.485-.372-3.537-.198"/></g></g></svg>