<svg xmlns="http://www.w3.org/2000/svg" width="20" height="20" viewBox="0 0 20 20"><g><g><path fill="none" stroke="#323232" stroke-linecap="round" stroke-linejoin="round" stroke-miterlimit="20" stroke-width="1.5" d="M8.942 7.056l3.883 2.296a.75.75 0 0 1 0 1.29L8.942 12.94a.75.75 0 0 1-1.132-.646V7.702a.75.75 0 0 1 1.132-.646z"/></g><g><path fill="none" stroke="#323232" stroke-linecap="round" stroke-linejoin="round" stroke-miterlimit="20" stroke-width="1.5" d="M16 19H4a3 3 0 0 1-3-3V4a3 3 0 0 1 3-3h12a3 3 0 0 1 3 3v12c0 1.656-1.344 3-3 3z"/></g></g></svg>