<svg xmlns="http://www.w3.org/2000/svg" width="44" height="44" viewBox="0 0 44 44"><g><g clip-path="url(#clip-62413BA3-61A6-454D-BDF0-166B9180C21D)"><path d="M40.215 36.716c.335 1.054.476 2.192.06 3.246-.329.834-.485 1.734-.947 2.519-.363.616-.54 1.33-1.043 1.88-.494.541-1.017 1.03-1.68 1.428.4-.832.44-1.694.494-2.447-1.698 3.404-4.635 4.45-8.188 4.31.31-.152.624-.296.93-.456.167-.087.379-.215.33-.412-.052-.205-.287-.129-.46-.127-.638.004-1.275.004-1.913-.007-.781-.015-1.243-.7-1.91-.974-.352-.144-.612-.518-.913-.788l.055-.1c.475.177.944.373 1.426.527.774.247 1.55.266 2.306-.094.079-.038.182-.068.171-.178-.01-.11-.126-.108-.195-.107-1.11.016-1.973-.597-2.888-1.113-.521-.294-1.096-.522-1.775-.514.282-.607.66-1.065 1.195-1.414.853-.555 1.83-.612 2.775-.816.22-.047.46-.08.66-.313-.975-.08-1.892-.087-2.839.12.165-.237.374-.206.572-.24.194-.034.377-.131.565-.201.792-.295 1.593-.567 2.373-.892.611-.256 1.41-1.993 1.26-2.652-.016-.074-.011-.194-.12-.183-.041.004-.09.11-.107.176-.236.95-.804 1.575-1.646 2.063-.739.428-1.458.468-2.263.435-.583-.024-.986.468-1.336.93-.218.289-.46.558-.675.849-.41.559-.937.213-1.42.215-.018 0-.038-.011-.055-.007-.893.186-1.128-.524-1.332-1.125-.131-.389.19-.801.328-1.192.31-.88.986-1.567 1.292-2.452.192-.557.397-1.113.477-1.702.029-.21-.197-.308-.228-.49a4.246 4.246 0 0 1 .032-1.65c.56.275.916-.008 1.202-.422.35-.505.353-1.054.104-1.6-.146-.317-.41-.599-.477-.928-.112-.55.26-1.04.851-1.246-.175.357-.408.676-.328 1.082.022.115.02.271.178.274.149.003.143-.149.177-.256.128-.398.284-.771.833-.889-.174.262-.347.432-.397.674-.04.185-.058.365.002.548.045.14.132.238.278.25.143.013.178-.11.227-.216.094-.205.187-.415.493-.493-.244.299-.378.567-.1.86.309.325.851.084 1.102-.508.388-.917.749-1.85 1.48-2.556.153-.148.338-.263.516-.38.117-.079.21-.047.257.102.283.906-.192 1.497-.283 1.631l1.52-1.134c.37 1.277.085 2.393-.759 3.303 1.028.948 1.983.031 2.956.027 1.133-.005 2.268-.116 3.383.202a8.225 8.225 0 0 0-3.024.38c1.18.214 2.302.128 3.286.648.93.493 1.906.944 2.515 1.992-.436-.3-.795-.58-1.185-.808-.388-.227-.806-.4-1.252-.616.461.8 2.025.714 3.077 4.027M22.63 40.73c.114-.035.349-.062.295-.196-.109-.27-.388-.42-.642-.542-.115-.055-.138.116-.133.216.014.3.158.487.48.522m2.638-6.412c.22-.299.276-.607.14-.754-.475.576-1 .885-1.699.283-.035.42.156.65.457.792.448.212.813.072 1.102-.32m1.792 1.784c-.64-.135-1.078.07-1.277.604.487-.095.829-.409 1.277-.604m.229.544c.015-.101-.043-.175-.143-.148-.241.063-.563.049-.654.323-.051.155.188.236.39.244.239-.003.368-.164.407-.419m.23 6.777c.122-.004.218-.073.223-.208.005-.136-.082-.207-.21-.21-.122-.003-.168.087-.188.202.029.093.034.22.176.216m.704-.146c.263-.004.414-.126.424-.354.012-.24-.165-.356-.373-.374-.21-.019-.355.108-.366.326-.01.232.133.357.315.402m7.992-5.839c-.024-.107-.077-.166-.202-.128-.124.037-.126.115-.105.222.05.255.096.511.139.768.017.103.02.21.164.21.109-.001.15-.058.168-.135.016-.062-.107-.686-.164-.937m-.184-.535c-.108-.403-.415-.673-.667-.967l.457 1.084c.025.06.1.086.155.048.05-.035.076-.087.055-.165m-1.28 1.584c-.014-.073-.054-.188-.17-.177-.149.012-.27-.039-.295.165-.025.203-.02.41-.022.631 0 .082.074.144.153.126.377-.088.401-.389.334-.745m-.188-.537c.148-.466-.272-1.325-.34-1.348 0 .16.104.934.136 1.325.01.118.168.135.204.023m-.609 2.325c-.038.115.124.133.178.147.475.019.57-.294.568-.626-.001-.34-.36-.184-.442-.164-.29.075-.227.414-.304.643m-.23.613c-.13.21-.335.423-.29.556.06.175.482.283.773-.203.057-.096.173-.364-.042-.523-.222-.164-.382.076-.44.17m-.24.916c-.193-.187-.395-.061-.586.193-.107.142-.183.368-.06.495.123.13.304.085.516-.1.209-.179.328-.397.13-.588m-1.409-1.49a.193.193 0 0 0 .055.284c.141.08.264.112.37.003.135-.14.383-.437.19-.59-.395-.312-.437.079-.615.302m-.47-5.28c.305.247.553.496.847.664.086.05.187-.084.282-.204a.106.106 0 0 0-.025-.154c-.297-.2-.853-.379-1.103-.306m1.139 4.226c-.028.059-.108.22.04.294.117.059.207-.103.235-.179.14-.368.149-.76.22-1.3-.231.476-.252.678-.495 1.185m.66-5.074a.12.12 0 0 0-.096-.168c-.208-.02-.404-.039-.6-.05-.25-.016-.952-.119-.987.026-.032.126.088.172.178.212.333.149.685.192 1.046.237.273.035.376-.075.459-.257m-1.92-1.077c-.052.047-.022.135.047.137.58.015 1.137-.122 1.711-.072.099.009.154-.118.08-.185-.4-.363-1.341-.315-1.837.12m-.073 7.825c-.13.092-.35.295-.2.48.316.39.582.155.986-.283.075-.082.027-.207-.05-.287-.302-.32-.416-.135-.736.09m-1.591 3.443c.079-.001.175-.025.182-.147.007-.12-.073-.192-.184-.2-.109-.006-.201.042-.212.169-.01.136.08.172.214.178m.169-1.854c.335-.108.213-.354.179-.4-.116-.158-.715.072-1.129.555.29.046.677-.066.95-.155m.417 1.598c.168-.002.3-.054.302-.255.003-.188-.057-.358-.268-.364-.198-.006-.306.14-.314.332-.007.181.102.276.28.287m.565-2.11c.094-.068.321-.189.167-.418-.173-.26-.314-.112-.465-.03-.183.099-.456.22-.244.488.22.28.417.053.542-.04m1.324.63c-.363.258-.712.533-1.213.73a2.74 2.74 0 0 0 1.493-.405.124.124 0 0 0 .014-.2c-.107-.088-.169-.213-.294-.125m-.636 2.475c.088-.01.15-.056.147-.16-.003-.117-.049-.204-.178-.2-.094.002-.156.055-.158.154-.003.126.073.185.189.206m1.286-.533c.087-.062.062-.17-.006-.253-.06-.071-.324.032-.37.05-.292.117-.346.157-.483.246.228.168.639.117.86-.043m.76-.272c.282-.125.232-.3.202-.34-.159-.217-.241-.132-.536.025-.167.09-.212.195-.16.294.076.147.116.19.494.021m1.126-.877c.043-.047.25-.206.102-.376-.259-.297-.447.012-.672.168-.383.265-.313.495-.248.568.24.273.584-.105.818-.36m1.029-1.308a.184.184 0 0 0-.092-.232l-.133-.065a.144.144 0 0 0-.187.058l-.374.632c-.062.106-.01.248.11.274.24.051.482-.183.676-.667m.33-.835c.075-.267.095-.502.181-.91.005-.087-.03-.148-.182-.183-.262-.062-.231.168-.397.618-.043.116-.229.548-.019.637.197.083.355.056.416-.162m.23-1.467c.018-.12.01-.685.009-.845-.002-.1.017-.205-.121-.205-.123 0-.204.041-.21.2-.01.261-.042.521-.064.782-.008.106.03.179.14.181.096.002.221.054.246-.113m-12.679-8.162c.48-.29.132-1.123.478-1.214.182-.05.243.142.317.27.247.433.091 1.227-.293 1.541-.238.195-.439.117-.605-.086-.16-.196-.183-.352.103-.51m-.83-1.08c.146-.224-.042-.56.278-.522.345.041.465.28.429.62-.036.265-.04.546-.36.659-.362.128-.433-.112-.628-.355-.07-.098.157-.212.281-.402m-2.31 2.45c-.049-.156-.023-.67.244-.637.494.138.964.334 1.54.63.036.019.023.074-.017.074-.586.006-1.722.073-1.767-.067m1.424 1.105c-.325.11-.652.217-.973.34-.18.069-.47-.48-.179-.527a12.042 12.042 0 0 1 1.149-.089c.105.006.172.005.18.105.008.129-.106.147-.177.171m-.05-3.8c.191-.143.288-.266.29-.51-.01-.172.197-.149.316.029.158.283-.023.582-.238.757-.141.114-.25-.003-.373-.11a.108.108 0 0 1 .005-.166m-.771-.427a.13.13 0 0 1 .009-.178c.255-.24.192-.434.317-.452.178-.025.412.144.412.359 0 .084 0 .147-.046.217-.111.173-.187.229-.365.223a.49.49 0 0 1-.327-.17m1.094 4.843l-.632.745c-.053.063-.122.16-.195.096a1.08 1.08 0 0 1-.234-.328c-.043-.082.05-.12.11-.146.29-.133.58-.26.919-.41.027-.012.05.021.032.043m-1.714-5.344a.121.121 0 0 1-.012-.16.57.57 0 0 0 .099-.285.116.116 0 0 1 .17-.09c.139.075.266.136.286.323.018.174-.058.313-.214.369-.153.055-.228-.06-.33-.157m-.883-1.136c.026.017.03.118.006.152a.253.253 0 0 1-.16.103c-.181.018-.69-.497-.758-.786-.006-.024.021-.042.041-.029.31.196.593.373.87.56m.652.758c-.226.13-.306-.011-.47-.122-.058-.039-.173-.138-.02-.234.158-.099.093-.34.35-.132.126.125.336.271.14.488"/></g><g clip-path="url(#clip-4BAEAE88-9785-4376-A57D-25B17941A8D6)"><path d="M2.891 7.896c-.04-1.086.13-2.203.825-3.095.55-.706.947-1.52 1.614-2.144.523-.49.891-1.123 1.533-1.514C7.494.758 8.14.43 8.898.223c-.619.687-.893 1.493-1.15 2.195C10.338-.372 13.5-.605 16.943.45c-.346.063-.692.119-1.036.191-.187.04-.429.106-.434.305-.006.208.246.197.416.24.626.161 1.25.326 1.871.503.762.216 1.028.986 1.608 1.419.304.227.457.65.679.983l-.082.081c-.417-.29-.823-.599-1.253-.87-.691-.434-1.445-.653-2.285-.507-.087.015-.196.017-.216.124-.02.108.094.135.162.152 1.091.272 1.771 1.077 2.527 1.804.43.414.931.78 1.6.947-.443.504-.937.84-1.557 1.032-.986.306-1.96.107-2.94.055-.229-.012-.473-.043-.733.127.933.328 1.83.572 2.815.62-.226.183-.423.1-.626.081-.2-.018-.406.027-.609.044-.856.075-1.715.125-2.567.232-.669.084-1.924 1.525-1.957 2.19-.004.074-.042.187.068.204.042.007.118-.08.153-.14.49-.839 1.216-1.286 2.174-1.53.84-.215 1.555-.066 2.335.174.565.174 1.094-.189 1.563-.537.292-.217.603-.41.891-.63.554-.425.977.04 1.45.164.018.005.035.02.053.02.926.055.962.79.998 1.413.023.402-.404.71-.645 1.046-.544.754-1.393 1.231-1.934 1.991-.34.478-.692.953-.93 1.492-.085.19.109.343.09.523a4.09 4.09 0 0 1-.481 1.557c-.473-.405-.899-.23-1.293.089-.48.388-.632.909-.536 1.49.055.34.238.676.214 1.005-.04.55-.538.92-1.173.962.269-.293.583-.535.616-.941.01-.116.055-.263-.1-.307-.145-.04-.18.105-.243.197-.234.345-.488.659-1.058.628.241-.203.457-.32.572-.536.089-.166.157-.332.148-.521-.007-.145-.065-.26-.204-.31-.137-.049-.205.06-.282.147-.148.17-.296.346-.617.34.32-.22.525-.44.332-.79-.214-.389-.811-.3-1.218.197-.63.769-1.237 1.56-2.146 2.041-.19.1-.402.162-.609.228-.136.043-.219-.01-.224-.164-.03-.933.596-1.371.722-1.475l-1.798.683c-.016-1.308.568-2.293 1.642-2.938-.748-1.165-1.934-.543-2.888-.79-1.112-.29-2.254-.478-3.26-1.068a8.604 8.604 0 0 0 3.066.422c-1.098-.509-2.22-.717-3.042-1.466-.778-.709-1.61-1.39-1.922-2.542.345.399.62.758.94 1.074.32.316.682.589 1.06.909-.234-.88-1.79-1.202-1.919-4.618m18.322.748c-.121.004-.359-.032-.342.11.033.289.266.506.482.69.097.082.166-.076.189-.172.068-.293-.023-.51-.329-.628m-4.332 5.408c-.296.226-.434.504-.34.68.621-.423 1.217-.58 1.74.175.148-.39.023-.658-.234-.872-.381-.318-.776-.28-1.166.017m-1.268-2.165c.595.291 1.083.214 1.424-.234-.507-.037-.928.167-1.424.234m-.076-.574c-.043.09-.005.174.1.176.254.003.565.1.727-.133.092-.13-.121-.268-.317-.328-.234-.059-.404.058-.51.285m1.622-6.501c-.12-.028-.233.015-.275.144-.043.131.022.223.146.259.119.034.19-.041.241-.148-.002-.097.028-.222-.112-.255m-.733-.035c-.258-.063-.44.012-.512.223-.076.222.065.376.265.446s.377-.011.446-.212c.074-.214-.033-.368-.199-.457m-9.42 3.47c-.005.107.031.178.164.174.132-.004.155-.077.163-.184.02-.255.046-.51.074-.764.01-.103.036-.205-.104-.241-.107-.028-.162.015-.202.083-.032.055-.081.678-.094.931m.044.557c-.005.407.218.739.381 1.08l-.146-1.136a.104.104 0 0 0-.136-.085c-.058.02-.098.063-.099.141m1.676-1.172c-.007.072.001.192.119.212.148.026.253.106.333-.08.08-.187.132-.385.193-.593a.124.124 0 0 0-.115-.16c-.393-.014-.499.265-.53.62m.036.568c-.271.4-.093 1.319-.033 1.358.044-.15.151-.907.226-1.283.022-.114-.128-.172-.193-.075m1.231-2.06c.07-.098-.084-.157-.134-.184-.46-.138-.638.13-.727.442-.091.318.303.264.388.266.306.004.336-.33.473-.524m.392-.511c.185-.167.444-.318.436-.458-.01-.183-.395-.398-.812-.007-.083.077-.269.303-.101.513.172.216.395.027.477-.048m.483-.807c.14.23.371.162.628-.032.143-.108.28-.306.194-.46-.086-.157-.275-.16-.534-.04-.253.118-.429.296-.288.532m.986 1.772a.19.19 0 0 0 .024-.292c-.12-.116-.234-.18-.371-.101-.174.099-.507.323-.356.524.31.408.462.039.703-.131m-.978 5.13c-.233-.313-.41-.613-.654-.849-.072-.07-.21.031-.335.12a.102.102 0 0 0-.018.153c.239.267.74.58 1.007.576m.022-4.296c.044-.049.166-.18.04-.289-.098-.084-.23.045-.278.108-.237.311-.351.678-.568 1.169.356-.389.432-.574.806-.988M8.873 12.06a.115.115 0 0 0 .048.184c.198.072.383.142.572.204.238.078.894.358.968.23.064-.112-.04-.186-.116-.247-.285-.228-.616-.36-.955-.497-.257-.103-.386-.026-.517.126m1.598 1.51c.064-.03.059-.12-.009-.14-.567-.161-1.153-.175-1.705-.368-.095-.034-.183.07-.13.152.295.441 1.236.636 1.844.356m2.2-7.396c.153-.054.424-.19.329-.403-.203-.452-.528-.297-1.044.015-.096.058-.083.19-.03.285.208.38.37.234.745.103m2.482-2.855c-.076-.02-.174-.021-.213.092-.039.112.018.201.123.237.102.035.203.013.246-.104.047-.126-.03-.184-.156-.225m-.665 1.715c-.358.016-.306.281-.285.334.071.179.721.116 1.257-.235-.272-.119-.68-.112-.972-.099m.027-1.623c-.166-.042-.309-.027-.366.166-.054.18-.042.36.163.422.193.058.338-.055.398-.238.057-.173-.025-.293-.195-.35m-1.129 1.854c-.11.04-.366.097-.278.354.1.29.278.188.448.15.206-.047.507-.091.372-.4-.14-.323-.394-.159-.542-.104m-1.123-.94c.428-.15.847-.322 1.395-.377a2.912 2.912 0 0 0-1.583-.004.12.12 0 0 0-.068.187c.081.11.108.245.256.194m1.292-2.174c-.089-.013-.162.013-.187.11-.027.109-.006.2.121.231.093.022.168-.01.196-.102.036-.115-.022-.19-.13-.239m-1.405.17c-.1.035-.106.142-.06.236.04.081.325.054.374.049.318-.032.382-.055.54-.102-.179-.215-.595-.275-.854-.184m-.817.055c-.31.046-.309.225-.29.271.096.247.2.187.531.114.188-.041.26-.13.237-.237-.035-.159-.062-.21-.478-.148m-1.344.546c-.054.033-.3.129-.2.326.173.346.44.104.703.016.446-.15.44-.384.397-.469-.163-.317-.601-.052-.9.127m-1.352.971a.177.177 0 0 0 .025.244l.112.096a.148.148 0 0 0 .196-.007l.534-.504c.09-.084.077-.233-.03-.288-.22-.11-.518.05-.837.46m-.56.704c-.146.234-.23.452-.426.816-.029.081-.01.148.129.221.24.127.272-.1.557-.483.074-.1.373-.462.192-.6-.17-.13-.332-.145-.452.046m-.632 1.338c-.05.108-.199.642-.24.793-.027.094-.075.188.067.225.125.033.219.015.269-.132.082-.244.185-.48.278-.72.038-.097.019-.175-.092-.207-.098-.027-.21-.11-.282.041m10.209 11.027c-.544.152-.433 1.038-.794 1.035-.19.001-.198-.198-.234-.34-.123-.477.245-1.194.703-1.395.284-.124.458.003.564.239.102.228.082.383-.24.46m.519 1.228c-.204.173-.112.538-.415.42-.327-.127-.379-.382-.251-.693.107-.24.188-.504.532-.528.389-.028.393.216.519.495.042.11-.212.16-.385.306m2.93-1.72c.005.161-.16.643-.412.542-.443-.258-.848-.565-1.328-.995-.03-.026-.003-.075.037-.065.572.145 1.698.374 1.703.518m-1.093-1.417c.351-.02.703-.036 1.053-.07.196-.019.332.577.032.546-.285-.03-1.055-.18-1.158-.213-.102-.032-.168-.05-.148-.146.027-.125.145-.112.221-.117m-.988 3.618c-.228.086-.358.177-.427.408-.036.166-.236.09-.306-.11-.08-.31.181-.546.443-.656.171-.072.247.068.34.202a.104.104 0 0 1-.05.156m.64.606a.124.124 0 0 1-.057.166c-.32.161-.31.362-.438.345-.184-.022-.37-.244-.311-.448.023-.08.04-.14.104-.194.158-.135.249-.168.423-.116.113.033.22.132.28.247m.246-4.878l.817-.55c.068-.047.162-.122.216-.043.072.108.111.245.138.375.018.09-.083.102-.147.113-.318.051-.636.099-1.005.154-.03.005-.044-.033-.02-.05m.225 5.515a.117.117 0 0 1-.032.156.564.564 0 0 0-.174.244.12.12 0 0 1-.191.042c-.116-.108-.225-.199-.193-.381.03-.17.142-.282.31-.295.165-.012.207.115.28.234m.557 1.308c-.02-.024.003-.12.036-.147a.265.265 0 0 1 .183-.056c.183.03.542.65.53.943-.001.023-.033.033-.049.016-.25-.266-.48-.508-.7-.756m-.438-.891c.264-.062.306.09.441.236.048.05.137.173-.044.223-.187.052-.189.294-.391.033-.093-.15-.264-.34-.006-.492"/></g><g clip-path="url(#clip-5BCF7E54-D247-4D91-8BED-D4C9DC750A65)"><path d="M39.498 23.42c-1.004.466-2.117.752-3.217.476-.872-.22-1.786-.258-2.625-.614-.659-.28-1.392-.364-2.003-.79-.6-.42-1.153-.875-1.634-1.48.878.29 1.74.218 2.495.174-3.601-1.243-5.018-4.015-5.334-7.549.19.288.374.58.572.862.108.154.262.347.452.273.197-.077.09-.3.067-.472a74.14 74.14 0 0 1-.238-1.893c-.086-.775.535-1.321.722-2.017.098-.365.436-.67.665-1.004l.107.042c-.115.493-.25.982-.34 1.479-.147.798-.066 1.567.39 2.27.047.073.09.171.198.147.108-.025.09-.139.08-.207-.158-1.096.34-2.03.736-3.001.225-.554.378-1.152.283-1.823.64.201 1.142.516 1.558 1.001.661.772.844 1.733 1.167 2.641.076.212.139.445.397.614-.046-.975-.157-1.884-.485-2.795.257.133.253.344.313.535.058.188.179.357.272.534.395.746.768 1.504 1.191 2.233.333.573 2.162 1.14 2.798.908.07-.026.19-.037.166-.143-.01-.04-.12-.076-.189-.083-.974-.112-1.669-.594-2.262-1.364-.52-.676-.652-1.383-.722-2.184-.051-.58-.592-.916-1.096-1.203-.315-.179-.613-.384-.93-.558-.608-.334-.333-.9-.396-1.378-.002-.018.006-.04 0-.056-.3-.86.375-1.183.946-1.462.37-.18.82.085 1.227.171.914.194 1.684.775 2.602.964.578.119 1.157.25 1.753.253.211.002.28-.234.458-.288a4.273 4.273 0 0 1 1.643-.18c-.201.588.125.904.574 1.135.546.282 1.093.214 1.602-.103.297-.185.544-.483.862-.591.532-.181 1.066.124 1.347.682-.377-.128-.723-.317-1.116-.186-.113.037-.268.054-.25.212.016.147.166.122.276.142.413.075.804.182.991.71-.282-.138-.473-.287-.72-.306-.19-.015-.37-.01-.545.072-.133.063-.22.161-.213.307.005.144.133.162.244.197.216.068.437.132.554.425-.329-.203-.612-.301-.868.011-.284.348.026.854.647 1.026.96.266 1.934.503 2.73 1.136.166.133.304.3.444.462.093.106.073.202-.069.267-.863.396-1.513.003-1.657-.07l1.322 1.358c-1.222.531-2.367.392-3.38-.326-.81 1.138.224 1.966.353 2.928.15 1.12.407 2.23.234 3.374a8.178 8.178 0 0 0-.766-2.944c-.06 1.196.169 2.295-.222 3.336-.37.984-.693 2.007-1.657 2.744.243-.47.476-.861.652-1.276.175-.413.293-.85.45-1.318-.736.56-.45 2.096-3.606 3.562M33.251 6.525c.05.107.108.333.236.263.258-.14.373-.433.463-.697.04-.119-.135-.12-.235-.102-.301.052-.47.216-.464.536m6.717 1.785c.323.179.633.195.76.042-.628-.395-1-.872-.497-1.637-.418.02-.62.236-.721.55-.152.468.034.81.458 1.045m-1.55 2.004c.05-.646-.206-1.05-.755-1.18.156.468.507.763.756 1.18m-.502.296c.103.002.168-.064.129-.16-.095-.227-.123-.543-.407-.597-.16-.031-.209.213-.19.411.034.233.21.34.468.346m-6.725 1.105c.02.117.102.2.24.188.139-.013.2-.106.187-.23-.013-.117-.11-.151-.23-.155-.09.04-.22.06-.197.197m.246.678c.037.256.178.388.406.37.24-.02.333-.207.324-.413-.01-.207-.154-.333-.372-.315-.231.018-.337.175-.358.358m6.828 7.163c.103-.037.156-.096.102-.213-.054-.116-.13-.108-.234-.074-.247.081-.496.157-.746.232-.1.03-.206.047-.187.186.014.106.076.138.155.147.064.007.668-.191.91-.278m.507-.265c.386-.156.616-.486.877-.766l-1.02.577c-.057.033-.073.109-.028.156.041.044.096.062.17.033m-1.744-1.053c.07-.023.177-.076.152-.188-.031-.143.004-.267-.2-.266-.203.002-.406.032-.623.059-.08.01-.132.09-.104.163.134.356.433.342.775.232m.526-.258c.475.085 1.264-.43 1.278-.498-.157.02-.903.217-1.281.297a.101.101 0 0 0 .003.2m-2.397-.292c-.12-.023-.117.137-.124.192.042.466.366.519.695.475.338-.044.137-.375.106-.452-.111-.274-.44-.169-.677-.215m-.64-.152c-.224-.1-.462-.274-.589-.213-.166.08-.22.507.301.73.103.044.384.123.514-.108.135-.238-.124-.364-.225-.409m-.95-.124c.16-.213.01-.394-.264-.549-.153-.086-.385-.132-.495.004-.11.137-.044.308.164.493.203.18.432.27.595.052m1.3-1.578a.194.194 0 0 0-.276.09c-.06.15-.077.276.045.367.155.116.484.323.61.112.26-.43-.134-.422-.379-.57m5.196-1.143c-.206.33-.421.606-.551.915-.038.091.108.174.239.25.053.032.122.012.15-.043.16-.317.266-.886.162-1.122m-4.047 1.67c-.061-.02-.23-.08-.284.077-.042.123.129.192.206.21.379.092.764.05 1.303.052-.496-.168-.697-.163-1.225-.34m5.121-.007a.12.12 0 0 0 .154-.115c-.007-.208-.013-.403-.026-.598-.017-.248-.005-.952-.153-.968-.13-.015-.16.109-.188.202-.105.347-.103.7-.102 1.06.001.274.123.361.315.42m.823-2.03c-.053-.045-.137-.005-.13.064.06.57.268 1.098.292 1.667.004.097.137.135.194.054.31-.437.14-1.354-.356-1.784m-7.792.931c-.106-.116-.334-.305-.496-.136-.344.36-.08.592.402.932.09.063.207 0 .276-.085.276-.338.08-.426-.182-.71m-3.619-1.138c.012.077.049.166.17.157.12-.008.182-.093.175-.202-.007-.106-.067-.189-.194-.183-.137.006-.162.098-.15.228m1.864-.08c.15.311.38.162.421.122.141-.132-.164-.686-.698-1.027-.008.288.154.65.277.904m-1.535.629c.024.163.093.285.292.262.188-.021.35-.1.329-.307-.02-.193-.18-.28-.371-.263-.181.015-.261.134-.25.308m2.172.287c.081.082.232.29.444.11.238-.203.071-.322-.03-.46-.124-.166-.282-.417-.524-.176-.253.252.001.415.11.526m-.459 1.391c-.302-.324-.62-.632-.88-1.1.074.562.257.996.594 1.417a.125.125 0 0 0 .2-.011c.074-.117.19-.194.086-.306m-2.53-.311c.021.083.073.137.173.122.113-.018.191-.072.172-.196-.015-.09-.074-.143-.17-.133-.122.013-.17.093-.175.207m.696 1.202c.073.077.177.04.25-.038.063-.067-.074-.312-.098-.355-.154-.272-.2-.32-.307-.443-.137.244-.033.64.155.836m.359.73c.163.261.333.19.37.155.198-.185.101-.256-.096-.527-.112-.154-.224-.185-.317-.121-.138.094-.176.14.043.492m1.02.993c.05.036.234.218.382.052.258-.29-.07-.436-.252-.637-.31-.342-.527-.244-.59-.172-.237.27.178.56.46.757m1.431.84a.188.188 0 0 0 .222-.118l.047-.137a.138.138 0 0 0-.081-.173l-.682-.28c-.114-.048-.25.022-.261.14-.02.238.246.442.755.567m.865.23c.273.04.507.03.92.063.087-.006.142-.049.158-.201.028-.263-.196-.204-.66-.309-.12-.027-.57-.153-.63.063-.057.202-.011.352.212.385m1.499.036c.12.002.676-.073.834-.094.098-.014.204-.008.186-.143-.016-.118-.068-.192-.225-.179-.258.022-.52.023-.779.034-.106.005-.172.05-.16.157.011.094-.024.221.144.225m6.472-13.595c.348.428 1.132-.016 1.267.31.073.17-.11.254-.229.342-.398.295-1.207.245-1.568-.088-.224-.207-.172-.412.009-.6.174-.18.326-.222.52.036m.966-.96c.241.115.552-.112.555.206.003.344-.218.49-.56.499-.269-.002-.549.03-.702-.27-.174-.337.055-.437.272-.66.088-.08.23.128.435.225m-2.732-1.97c.147-.068.655-.108.655.158-.073.5-.205.986-.423 1.588-.014.037-.07.032-.075-.007-.08-.573-.288-1.678-.157-1.739m-.914 1.543c-.151-.306-.3-.613-.463-.913-.091-.168.417-.523.5-.243.08.267.23 1.013.237 1.118.008.104.017.17-.082.19-.126.025-.16-.085-.192-.152m3.773-.528c.168.17.305.25.55.223.171-.033.176.175.013.315-.264.192-.587.051-.791-.14-.134-.125-.031-.247.06-.382a.11.11 0 0 1 .168-.016m.322-.82a.13.13 0 0 1 .178-.013c.272.222.457.135.49.257.048.173-.089.426-.302.452-.085.01-.146.02-.222-.017-.187-.088-.252-.156-.27-.333a.486.486 0 0 1 .126-.346m-4.672 1.696l-.829-.523c-.07-.044-.176-.1-.122-.179.074-.108.187-.197.3-.272.077-.052.127.035.161.09.17.266.336.535.53.848.015.024-.015.052-.04.036m5.09-2.374a.122.122 0 0 1 .159-.032.573.573 0 0 0 .295.061c.083 0 .141.08.112.157-.057.147-.1.282-.285.325-.17.04-.318-.017-.393-.164-.075-.145.03-.234.113-.347m1.016-1.03c-.014.027-.114.044-.151.025a.25.25 0 0 1-.123-.143c-.041-.176.405-.74.684-.844.023-.009.044.016.034.037-.155.328-.295.629-.444.924m-.67.752c-.157-.208-.028-.304.061-.481.031-.062.115-.189.23-.05.119.145.35.05.177.33-.108.141-.226.367-.467.201"/></g><g clip-path="url(#clip-976F48EF-F765-40AD-80A0-EFD1E177467C)"><path d="M10.161 25.335c1.04.382 2.027.97 2.606 1.944.458.77 1.074 1.446 1.411 2.291.265.665.722 1.243.849 1.976.124.721.19 1.433.098 2.2-.413-.826-1.07-1.386-1.633-1.89 1.652 3.427.678 6.383-1.614 9.096.071-.337.149-.673.21-1.012.034-.185.062-.43-.124-.512-.193-.086-.277.147-.383.284a74.254 74.254 0 0 1-1.178 1.503c-.491.606-1.318.55-1.944.908-.33.188-.784.164-1.183.236l-.045-.105c.431-.266.874-.515 1.292-.8.67-.459 1.161-1.058 1.34-1.876.019-.085.058-.184-.035-.244-.094-.06-.163.034-.205.089-.667.884-1.683 1.189-2.652 1.593-.553.23-1.086.543-1.496 1.084-.308-.596-.438-1.174-.385-1.81.083-1.012.638-1.818 1.056-2.687.098-.203.22-.412.158-.713-.662.72-1.23 1.438-1.647 2.312-.086-.276.066-.422.16-.599.093-.173.128-.378.188-.569.253-.805.53-1.603.75-2.417.173-.639-.711-2.334-1.324-2.62-.069-.033-.161-.11-.22-.018-.021.035.032.138.074.192.607.77.754 1.6.623 2.563-.114.845-.524 1.436-1.044 2.05-.378.445-.235 1.065-.084 1.624.094.35.158.706.258 1.053.19.665-.407.87-.702 1.25-.011.015-.032.024-.04.04-.4.818-1.106.567-1.706.36-.389-.135-.518-.642-.743-.99-.505-.785-.634-1.74-1.147-2.523-.322-.493-.636-.996-1.054-1.42-.148-.15-.365-.034-.527-.121a4.263 4.263 0 0 1-1.286-1.038c.56-.272.555-.726.404-1.206-.185-.586-.618-.925-1.202-1.063-.34-.08-.727-.044-1.028-.194-.503-.25-.662-.843-.463-1.435.174.357.284.736.654.922.105.053.227.152.326.028.094-.116-.03-.204-.093-.296-.237-.345-.436-.698-.193-1.202.1.297.13.538.29.726.122.144.253.27.435.335.138.05.269.042.368-.065.099-.105.022-.209-.032-.312-.104-.2-.214-.403-.088-.692.088.376.217.646.62.607.447-.044.589-.62.274-1.18-.487-.868-1.004-1.725-1.114-2.735-.023-.211-.001-.427.015-.64.01-.14.093-.194.239-.14.89.333 1.067 1.07 1.117 1.225l.035-1.894c1.238.491 1.946 1.401 2.148 2.624C.925 29.204.787 27.89 1.38 27.12c.691-.896 1.3-1.86 2.235-2.543a8.19 8.19 0 0 0-1.554 2.616c.894-.798 1.513-1.735 2.53-2.191.96-.431 1.915-.923 3.118-.76-.505.159-.947.27-1.366.438-.418.167-.811.39-1.256.608.917.128 1.808-1.157 5.074.047M2.556 41.656c.043-.111.167-.313.027-.352-.284-.08-.578.048-.833.173-.114.057.008.18.09.237.25.173.488.175.716-.058M-.913 35.64c-.099-.355-.306-.587-.505-.57.16.726.08 1.327-.82 1.512.308.283.605.272.901.122.441-.224.555-.597.424-1.064m2.517-.314c-.498.423-.608.893-.313 1.373.225-.442.19-.9.313-1.373m.57.153c-.07-.073-.163-.072-.204.024-.099.228-.307.473-.15.71.09.133.298-.007.429-.161.144-.19.098-.39-.076-.573m5.514 3.984c.071-.098.073-.217-.032-.305-.108-.09-.219-.066-.3.033-.076.094-.032.187.049.275.093.036.199.111.283-.003m.308-.651c.158-.21.154-.403-.02-.552-.182-.155-.383-.088-.525.065-.143.155-.131.347.034.489.177.15.364.114.511-.002m.285-9.88c-.1-.047-.18-.042-.226.08-.047.12.013.17.111.219.233.116.463.238.693.362.092.05.179.112.266 0 .067-.087.047-.154-.003-.216-.04-.05-.608-.336-.841-.446m-.552-.175c-.381-.163-.778-.09-1.16-.076l1.125.311c.063.018.128-.026.13-.09.003-.061-.022-.113-.095-.145m.483 1.973c-.066-.034-.182-.073-.245.025-.081.125-.196.189-.05.334.146.144.312.268.486.404.064.05.16.03.193-.043.162-.35-.061-.554-.384-.72m-.558-.18c-.273-.405-1.198-.601-1.257-.562.124.1.791.495 1.115.711.098.065.208-.05.142-.149m1.484 1.905c.067.1.181-.016.225-.05.306-.363.117-.63-.147-.832-.27-.207-.367.171-.4.248-.12.275.188.433.322.634m.344.557c.086.231.128.524.261.57.175.06.52-.206.314-.733-.04-.105-.182-.36-.44-.288-.266.074-.174.347-.135.451m.578.75c-.267.038-.291.271-.208.575.047.17.18.366.355.348.178-.018.254-.186.239-.464-.015-.271-.114-.497-.386-.459m-2.038.207c.028.116.158.18.267.135.154-.064.258-.143.236-.297-.028-.197-.114-.585-.36-.525-.503.123-.212.403-.143.687m-4.472-2.88c.382-.089.731-.132 1.044-.26.092-.037.049-.2.012-.347a.107.107 0 0 0-.137-.075c-.34.111-.823.44-.92.681m4.03 1.69c.029.059.106.22.254.149.116-.057.044-.227.003-.295-.201-.335-.5-.58-.877-.966.23.473.374.613.62 1.113m-3.606-3.629a.118.118 0 0 0-.19-.027c-.142.152-.277.294-.405.442-.164.187-.672.677-.58.794.08.102.189.036.275-.01.32-.172.568-.422.823-.679.193-.194.17-.342.077-.52m-2.02.843c.005.07.093.1.137.046.367-.444.601-.964.993-1.383.067-.072 0-.193-.097-.176-.533.092-1.073.86-1.033 1.513m6.146 4.87c-.007.157.02.453.256.45.502-.007.477-.36.376-.943-.019-.11-.147-.149-.256-.138-.437.04-.36.243-.376.63m1.749 3.365c.047-.063.087-.154-.005-.234-.09-.079-.196-.06-.27.023-.073.081-.091.184.002.27.101.092.185.043.273-.059m-1.363-1.27c.12-.332-.15-.386-.208-.388-.195-.005-.38.608-.252 1.23.214-.2.362-.574.46-.843m1.52.644c.1-.132.14-.265-.016-.388-.148-.116-.32-.173-.454-.013-.126.15-.076.322.07.444.14.116.282.088.4-.043m-1.312-1.732c.003-.116.048-.37-.234-.389-.316-.022-.286.18-.314.349-.035.205-.108.494.24.492.364-.003.303-.297.308-.452m1.3-.657c-.02.444-.015.888-.168 1.403.35-.45.532-.887.597-1.424a.124.124 0 0 0-.15-.134c-.135.03-.272.002-.28.155m1.552 2.014c.044-.076.047-.152-.032-.212-.09-.067-.182-.083-.257.02-.054.076-.051.157.022.218.092.077.182.052.267-.026m.38-1.339c.004-.105-.095-.151-.2-.146-.092.004-.174.273-.188.32-.09.301-.092.367-.107.529.27-.08.482-.433.494-.703m.257-.763c.074-.298-.096-.366-.146-.367-.269-.008-.251.11-.308.438-.032.186.024.286.134.306.163.03.221.025.32-.377m-.008-1.426c-.01-.063-.008-.324-.231-.31-.391.023-.265.362-.28.637-.028.466.195.551.292.545.36-.024.276-.53.22-.872m-.406-1.604a.185.185 0 0 0-.24-.072l-.131.065a.141.141 0 0 0-.067.18l.273.68c.045.113.19.16.283.083.186-.156.147-.489-.118-.936m-.453-.78c-.164-.223-.338-.384-.608-.702-.065-.057-.136-.066-.257.031-.21.17-.008.286.245.693.066.105.294.516.493.405.187-.104.262-.245.127-.427m-1.02-1.087c-.084-.089-.531-.43-.658-.527-.08-.06-.15-.14-.237-.028-.077.1-.096.192.025.295.198.169.383.355.574.532.078.073.159.086.23-.002.062-.078.181-.147.066-.27m-14.237 4.991c.062-.551-.81-.791-.671-1.118.07-.173.26-.103.407-.081.493.072 1.026.68 1.041 1.174.01.305-.175.414-.436.419-.253.005-.39-.072-.341-.394m-1.362-.01c-.088-.251-.47-.31-.243-.538.244-.247.506-.195.753.041.188.192.408.368.3.69-.12.362-.353.271-.665.276-.12-.004-.071-.254-.145-.468m.519 3.324c-.153-.058-.542-.394-.354-.583.408-.302.847-.55 1.43-.82.036-.016.071.028.047.06-.35.462-.987 1.394-1.123 1.343m1.75-.444c-.113.324-.229.646-.328.975-.056.184-.669.075-.527-.183.135-.245.565-.88.634-.96.07-.079.11-.133.194-.076.107.072.051.173.027.244m-3.041-2.293c.006-.24-.031-.394-.22-.545-.14-.097.005-.25.216-.235.318.048.44.375.445.655.003.183-.155.198-.314.23a.106.106 0 0 1-.127-.105m-.808.346a.128.128 0 0 1-.135-.117c-.031-.351-.224-.42-.16-.53.09-.158.37-.241.54-.109.066.053.116.09.143.17.068.195.065.29-.05.428a.498.498 0 0 1-.338.158m4.503 2.11l.208.95c.018.081.053.194-.042.213-.13.024-.274.007-.407-.019-.092-.018-.064-.114-.05-.176.073-.308.15-.614.237-.97.007-.029.048-.027.054.001m-5.28-1.928a.121.121 0 0 1-.134-.09.573.573 0 0 0-.165-.252.116.116 0 0 1 .033-.19c.145-.062.271-.126.431-.026.149.092.212.237.16.394-.05.155-.186.144-.325.164m-1.442 0c.03-.01.112.048.124.088a.252.252 0 0 1-.016.188c-.097.155-.816.24-1.088.116-.022-.01-.02-.042.003-.05.345-.124.66-.239.977-.343m1.005-.055c-.038.26-.2.238-.39.302-.066.022-.217.053-.197-.128.02-.187-.211-.283.114-.362.177-.024.423-.101.473.188"/></g></g></svg>