<svg xmlns="http://www.w3.org/2000/svg" width="27" height="40" viewBox="0 0 27 40"><g><g><path d="M15.579 40c-3.43-.03-5.825-.352-8.212-.745-.176-.03-.355-.048-.53-.086-1.7-.365-1.928-.578-1.846-2.35.141-3.07.364-8.206.562-11.274.23-3.56.604-7.111.417-10.687-.069-1.323-.453-1.595-1.698-1.098-.362.145-.57.043-.776-.203C2.168 11.96.981 10.27.087 8.379c-.212-.448-.002-.727.262-1.045C2.041 5.298 4.13 3.77 6.328 2.353 7.689 1.475 9.033.655 10.652.337c3.637-.715 7.045-.365 10.229 1.754 1.583 1.055 3.31 1.892 5 2.774 1.195.624 1.292.716.94 2.058-.492 1.875-1.644 3.408-2.623 5.025-.303.5-.783.712-1.447.66-1.167-.094-1.622.483-1.464 1.674.554 4.194 1.165 8.38 1.655 12.582.34 2.91.511 7.909.768 10.83.04.449-.06.767-.523.908-2.811.855-5.682 1.33-7.608 1.398M12.792 1.081c-.92-.088-1.655.282-2.393.584-.494.202-.526.58-.115.99 1.633 1.635 5.034 2.029 6.394-.236.449-.748.487-.85-.26-1.086-1.231-.387-2.478-.386-3.626-.252"/></g></g></svg>